<svg xmlns="http://www.w3.org/2000/svg" width="16" height="12" fill="none"><mask id="a" width="16" height="12" x="0" y="0" maskUnits="userSpaceOnUse"><path fill="#fff" d="M0 0h16v12H0z"/></mask><g mask="url(#a)"><path fill="#C51918" fill-rule="evenodd" d="M0 6h16v6H0V6z" clip-rule="evenodd"/><mask id="b" width="16" height="6" x="0" y="6" maskUnits="userSpaceOnUse"><path fill="#fff" fill-rule="evenodd" d="M0 6h16v6H0V6z" clip-rule="evenodd"/></mask><g mask="url(#b)"><path fill="#F7FCFF" fill-rule="evenodd" d="M6 10a4 4 0 100-8 4 4 0 000 8z" clip-rule="evenodd"/></g><path fill="#F7FCFF" fill-rule="evenodd" d="M0 0h16v6H0V0z" clip-rule="evenodd"/><mask id="c" width="16" height="6" x="0" y="0" maskUnits="userSpaceOnUse"><path fill="#fff" fill-rule="evenodd" d="M0 0h16v6H0V0z" clip-rule="evenodd"/></mask><g mask="url(#c)"><path fill="#C51918" fill-rule="evenodd" d="M6 10a4 4 0 100-8 4 4 0 000 8z" clip-rule="evenodd"/></g></g></svg>